<?xml version="1.0" encoding="UTF-8" standalone="no"?>
<svg width="256px" height="256px" viewBox="0 0 256 256" version="1.1" xmlns="http://www.w3.org/2000/svg" xmlns:xlink="http://www.w3.org/1999/xlink" xmlns:sketch="http://www.bohemiancoding.com/sketch/ns">
    <title>logo</title>
    <description>Created with Sketch (http://www.bohemiancoding.com/sketch)</description>
    <defs></defs>
    <g id="Page 1" fill="#D8D8D8" fill-rule="evenodd">
        <g id="Layer_1" fill="#000000">
            <path d="M128,256 C57.312,256 0,198.688 0,128 L0,128 L0,96 L64,160 L37.648,160 C49.136,192.288 77.376,216.544 112,222.384 L112,144 L96,144 C87.168,144 80,136.848 80,128 C80,119.152 87.168,112 96,112 L112,112 L112,93.056 C93.392,86.448 80,68.88 80,48 C80,23.696 98.128,3.824 121.552,0.656 C123.632,0.224 125.792,0 128,0 C130.208,0 132.368,0.224 134.448,0.656 C157.872,3.824 176,23.696 176,48 C176,68.88 162.592,86.448 144,93.056 L144,112 L160,112 C168.848,112 176,119.152 176,128 C176,136.848 168.848,144 160,144 L144,144 L144,222.384 C178.624,216.544 206.88,192.272 218.352,160 L192,160 L256,96 L256,128 C256,198.688 198.688,256 128,256 L128,256 Z M128,32 C119.168,32 112,39.152 112,48 C112,56.848 119.168,64 128,64 C136.832,64 144,56.848 144,48 C144,39.152 136.832,32 128,32 L128,32 Z M128,32" id="Shape" fill="#3498DB"></path>
        </g>
    </g>
</svg>