<?xml version="1.0" encoding="UTF-8" standalone="no"?>
<svg width="138px" height="138px" viewBox="0 0 138 138" version="1.1" xmlns="http://www.w3.org/2000/svg" xmlns:xlink="http://www.w3.org/1999/xlink" xmlns:sketch="http://www.bohemiancoding.com/sketch/ns">
    <title>arvo logo</title>
    <description>Created with Sketch (http://www.bohemiancoding.com/sketch)</description>
    <defs></defs>
    <g id="Page 1" stroke="none" stroke-width="1" fill="none" fill-rule="evenodd">
        <g id="Final Logo solid">
            <path d="M69,138 C107.10765,138 138,107.10765 138,69 C138,30.8923504 107.10765,0 69,0 C30.8923504,0 0,30.8923504 0,69 C0,107.10765 30.8923504,138 69,138 Z M69,138" id="Oval 1" fill="#3498DB"></path>
            <g id="Layer_1 copy 3" transform="translate(41.000000, 41.000000)" fill="#FFFFFF">
                <path d="M28,56 C12.537,56 0,43.463 0,28 L0,28 L0,21 L14,35 L8.2355,35 C10.7485,42.063 16.926,47.369 24.5,48.6465 L24.5,31.5 L21,31.5 C19.068,31.5 17.5,29.9355 17.5,28 C17.5,26.0645 19.068,24.5 21,24.5 L24.5,24.5 L24.5,20.356 C20.4295,18.9105 17.5,15.0675 17.5,10.5 C17.5,5.1835 21.4655,0.8365 26.5895,0.1435 C27.0445,0.049 27.517,0 28,0 C28.483,0 28.9555,0.049 29.4105,0.1435 C34.5345,0.8365 38.5,5.1835 38.5,10.5 C38.5,15.0675 35.567,18.9105 31.5,20.356 L31.5,24.5 L35,24.5 C36.9355,24.5 38.5,26.0645 38.5,28 C38.5,29.9355 36.9355,31.5 35,31.5 L31.5,31.5 L31.5,48.6465 C39.074,47.369 45.255,42.0595 47.7645,35 L42,35 L56,21 L56,28 C56,43.463 43.463,56 28,56 L28,56 Z M28,7 C26.068,7 24.5,8.5645 24.5,10.5 C24.5,12.4355 26.068,14 28,14 C29.932,14 31.5,12.4355 31.5,10.5 C31.5,8.5645 29.932,7 28,7 L28,7 Z M28,7" id="Shape"></path>
            </g>
        </g>
    </g>
</svg>